<svg width="292" height="76" viewBox="0 0 292 76" fill="none" xmlns="http://www.w3.org/2000/svg">
<path d="M106.047 28.082V34.8438C105.781 35.1641 105.371 35.5117 104.816 35.8867C104.262 36.2539 103.547 36.5703 102.672 36.8359C101.797 37.1016 100.738 37.2344 99.4961 37.2344C98.3945 37.2344 97.3906 37.0547 96.4844 36.6953C95.5781 36.3281 94.7969 35.793 94.1406 35.0898C93.4922 34.3867 92.9922 33.5273 92.6406 32.5117C92.2891 31.4883 92.1133 30.3203 92.1133 29.0078V27.9414C92.1133 26.6289 92.2812 25.4609 92.6172 24.4375C92.9609 23.4141 93.4492 22.5508 94.082 21.8477C94.7148 21.1445 95.4688 20.6094 96.3438 20.2422C97.2188 19.875 98.1914 19.6914 99.2617 19.6914C100.746 19.6914 101.965 19.9336 102.918 20.418C103.871 20.8945 104.598 21.5586 105.098 22.4102C105.605 23.2539 105.918 24.2227 106.035 25.3164H102.625C102.539 24.7383 102.375 24.2344 102.133 23.8047C101.891 23.375 101.543 23.0391 101.09 22.7969C100.645 22.5547 100.066 22.4336 99.3555 22.4336C98.7695 22.4336 98.2461 22.5547 97.7852 22.7969C97.332 23.0312 96.9492 23.3789 96.6367 23.8398C96.3242 24.3008 96.0859 24.8711 95.9219 25.5508C95.7578 26.2305 95.6758 27.0195 95.6758 27.918V29.0078C95.6758 29.8984 95.7617 30.6875 95.9336 31.375C96.1055 32.0547 96.3594 32.6289 96.6953 33.0977C97.0391 33.5586 97.4609 33.9062 97.9609 34.1406C98.4609 34.375 99.043 34.4922 99.707 34.4922C100.262 34.4922 100.723 34.4453 101.09 34.3516C101.465 34.2578 101.766 34.1445 101.992 34.0117C102.227 33.8711 102.406 33.7383 102.531 33.6133V30.5898H99.3203V28.082H106.047ZM108.133 30.7891V30.543C108.133 29.6133 108.266 28.7578 108.531 27.9766C108.797 27.1875 109.184 26.5039 109.691 25.9258C110.199 25.3477 110.824 24.8984 111.566 24.5781C112.309 24.25 113.16 24.0859 114.121 24.0859C115.082 24.0859 115.938 24.25 116.688 24.5781C117.438 24.8984 118.066 25.3477 118.574 25.9258C119.09 26.5039 119.48 27.1875 119.746 27.9766C120.012 28.7578 120.145 29.6133 120.145 30.543V30.7891C120.145 31.7109 120.012 32.5664 119.746 33.3555C119.48 34.1367 119.09 34.8203 118.574 35.4062C118.066 35.9844 117.441 36.4336 116.699 36.7539C115.957 37.0742 115.105 37.2344 114.145 37.2344C113.184 37.2344 112.328 37.0742 111.578 36.7539C110.836 36.4336 110.207 35.9844 109.691 35.4062C109.184 34.8203 108.797 34.1367 108.531 33.3555C108.266 32.5664 108.133 31.7109 108.133 30.7891ZM111.508 30.543V30.7891C111.508 31.3203 111.555 31.8164 111.648 32.2773C111.742 32.7383 111.891 33.1445 112.094 33.4961C112.305 33.8398 112.578 34.1094 112.914 34.3047C113.25 34.5 113.66 34.5977 114.145 34.5977C114.613 34.5977 115.016 34.5 115.352 34.3047C115.688 34.1094 115.957 33.8398 116.16 33.4961C116.363 33.1445 116.512 32.7383 116.605 32.2773C116.707 31.8164 116.758 31.3203 116.758 30.7891V30.543C116.758 30.0273 116.707 29.543 116.605 29.0898C116.512 28.6289 116.359 28.2227 116.148 27.8711C115.945 27.5117 115.676 27.2305 115.34 27.0273C115.004 26.8242 114.598 26.7227 114.121 26.7227C113.645 26.7227 113.238 26.8242 112.902 27.0273C112.574 27.2305 112.305 27.5117 112.094 27.8711C111.891 28.2227 111.742 28.6289 111.648 29.0898C111.555 29.543 111.508 30.0273 111.508 30.543ZM125.781 19V37H122.395V19H125.781ZM136.059 34.2344V19H139.457V37H136.398L136.059 34.2344ZM128.043 30.8125V30.5664C128.043 29.5977 128.152 28.7188 128.371 27.9297C128.59 27.1328 128.91 26.4492 129.332 25.8789C129.754 25.3086 130.273 24.8672 130.891 24.5547C131.508 24.2422 132.211 24.0859 133 24.0859C133.742 24.0859 134.391 24.2422 134.945 24.5547C135.508 24.8672 135.984 25.3125 136.375 25.8906C136.773 26.4609 137.094 27.1367 137.336 27.918C137.578 28.6914 137.754 29.5391 137.863 30.4609V31C137.754 31.8828 137.578 32.7031 137.336 33.4609C137.094 34.2188 136.773 34.8828 136.375 35.4531C135.984 36.0156 135.508 36.4531 134.945 36.7656C134.383 37.0781 133.727 37.2344 132.977 37.2344C132.188 37.2344 131.484 37.0742 130.867 36.7539C130.258 36.4336 129.742 35.9844 129.32 35.4062C128.906 34.8281 128.59 34.1484 128.371 33.3672C128.152 32.5859 128.043 31.7344 128.043 30.8125ZM131.418 30.5664V30.8125C131.418 31.3359 131.457 31.8242 131.535 32.2773C131.621 32.7305 131.758 33.1328 131.945 33.4844C132.141 33.8281 132.391 34.0977 132.695 34.293C133.008 34.4805 133.387 34.5742 133.832 34.5742C134.41 34.5742 134.887 34.4453 135.262 34.1875C135.637 33.9219 135.922 33.5586 136.117 33.0977C136.32 32.6367 136.438 32.1055 136.469 31.5039V29.9688C136.445 29.4766 136.375 29.0352 136.258 28.6445C136.148 28.2461 135.984 27.9062 135.766 27.625C135.555 27.3438 135.289 27.125 134.969 26.9688C134.656 26.8125 134.285 26.7344 133.855 26.7344C133.418 26.7344 133.043 26.8359 132.73 27.0391C132.418 27.2344 132.164 27.5039 131.969 27.8477C131.781 28.1914 131.641 28.5977 131.547 29.0664C131.461 29.5273 131.418 30.0273 131.418 30.5664ZM147.93 37.2344C146.945 37.2344 146.062 37.0781 145.281 36.7656C144.5 36.4453 143.836 36.0039 143.289 35.4414C142.75 34.8789 142.336 34.2266 142.047 33.4844C141.758 32.7344 141.613 31.9375 141.613 31.0938V30.625C141.613 29.6641 141.75 28.7852 142.023 27.9883C142.297 27.1914 142.688 26.5 143.195 25.9141C143.711 25.3281 144.336 24.8789 145.07 24.5664C145.805 24.2461 146.633 24.0859 147.555 24.0859C148.453 24.0859 149.25 24.2344 149.945 24.5312C150.641 24.8281 151.223 25.25 151.691 25.7969C152.168 26.3438 152.527 27 152.77 27.7656C153.012 28.5234 153.133 29.3672 153.133 30.2969V31.7031H143.055V29.4531H149.816V29.1953C149.816 28.7266 149.73 28.3086 149.559 27.9414C149.395 27.5664 149.145 27.2695 148.809 27.0508C148.473 26.832 148.043 26.7227 147.52 26.7227C147.074 26.7227 146.691 26.8203 146.371 27.0156C146.051 27.2109 145.789 27.4844 145.586 27.8359C145.391 28.1875 145.242 28.6016 145.141 29.0781C145.047 29.5469 145 30.0625 145 30.625V31.0938C145 31.6016 145.07 32.0703 145.211 32.5C145.359 32.9297 145.566 33.3008 145.832 33.6133C146.105 33.9258 146.434 34.168 146.816 34.3398C147.207 34.5117 147.648 34.5977 148.141 34.5977C148.75 34.5977 149.316 34.4805 149.84 34.2461C150.371 34.0039 150.828 33.6406 151.211 33.1562L152.852 34.9375C152.586 35.3203 152.223 35.6875 151.762 36.0391C151.309 36.3906 150.762 36.6797 150.121 36.9062C149.48 37.125 148.75 37.2344 147.93 37.2344ZM158.359 27.0273V37H154.984V24.3203H158.148L158.359 27.0273ZM157.867 30.2148H156.953C156.953 29.2773 157.074 28.4336 157.316 27.6836C157.559 26.9258 157.898 26.2812 158.336 25.75C158.773 25.2109 159.293 24.8008 159.895 24.5195C160.504 24.2305 161.184 24.0859 161.934 24.0859C162.527 24.0859 163.07 24.1719 163.562 24.3438C164.055 24.5156 164.477 24.7891 164.828 25.1641C165.188 25.5391 165.461 26.0352 165.648 26.6523C165.844 27.2695 165.941 28.0234 165.941 28.9141V37H162.543V28.9023C162.543 28.3398 162.465 27.9023 162.309 27.5898C162.152 27.2773 161.922 27.0586 161.617 26.9336C161.32 26.8008 160.953 26.7344 160.516 26.7344C160.062 26.7344 159.668 26.8242 159.332 27.0039C159.004 27.1836 158.73 27.4336 158.512 27.7539C158.301 28.0664 158.141 28.4336 158.031 28.8555C157.922 29.2773 157.867 29.7305 157.867 30.2148ZM180.848 33.4375L184.867 19.9375H188.781L182.84 37H180.262L180.848 33.4375ZM177.145 19.9375L181.152 33.4375L181.762 37H179.16L173.254 19.9375H177.145ZM193.727 24.3203V37H190.34V24.3203H193.727ZM190.129 21.0156C190.129 20.5234 190.301 20.1172 190.645 19.7969C190.988 19.4766 191.449 19.3164 192.027 19.3164C192.598 19.3164 193.055 19.4766 193.398 19.7969C193.75 20.1172 193.926 20.5234 193.926 21.0156C193.926 21.5078 193.75 21.9141 193.398 22.2344C193.055 22.5547 192.598 22.7148 192.027 22.7148C191.449 22.7148 190.988 22.5547 190.645 22.2344C190.301 21.9141 190.129 21.5078 190.129 21.0156ZM202.352 37.2344C201.367 37.2344 200.484 37.0781 199.703 36.7656C198.922 36.4453 198.258 36.0039 197.711 35.4414C197.172 34.8789 196.758 34.2266 196.469 33.4844C196.18 32.7344 196.035 31.9375 196.035 31.0938V30.625C196.035 29.6641 196.172 28.7852 196.445 27.9883C196.719 27.1914 197.109 26.5 197.617 25.9141C198.133 25.3281 198.758 24.8789 199.492 24.5664C200.227 24.2461 201.055 24.0859 201.977 24.0859C202.875 24.0859 203.672 24.2344 204.367 24.5312C205.062 24.8281 205.645 25.25 206.113 25.7969C206.59 26.3438 206.949 27 207.191 27.7656C207.434 28.5234 207.555 29.3672 207.555 30.2969V31.7031H197.477V29.4531H204.238V29.1953C204.238 28.7266 204.152 28.3086 203.98 27.9414C203.816 27.5664 203.566 27.2695 203.23 27.0508C202.895 26.832 202.465 26.7227 201.941 26.7227C201.496 26.7227 201.113 26.8203 200.793 27.0156C200.473 27.2109 200.211 27.4844 200.008 27.8359C199.812 28.1875 199.664 28.6016 199.562 29.0781C199.469 29.5469 199.422 30.0625 199.422 30.625V31.0938C199.422 31.6016 199.492 32.0703 199.633 32.5C199.781 32.9297 199.988 33.3008 200.254 33.6133C200.527 33.9258 200.855 34.168 201.238 34.3398C201.629 34.5117 202.07 34.5977 202.562 34.5977C203.172 34.5977 203.738 34.4805 204.262 34.2461C204.793 34.0039 205.25 33.6406 205.633 33.1562L207.273 34.9375C207.008 35.3203 206.645 35.6875 206.184 36.0391C205.73 36.3906 205.184 36.6797 204.543 36.9062C203.902 37.125 203.172 37.2344 202.352 37.2344ZM213.098 33.7188L215.734 24.3203H217.879L217.188 28.0117L214.551 37H212.758L213.098 33.7188ZM211.762 24.3203L213.648 33.707L213.824 37H211.715L208.504 24.3203H211.762ZM220.293 33.5547L222.133 24.3203H225.402L222.191 37H220.094L220.293 33.5547ZM218.172 24.3203L220.797 33.6484L221.16 37H219.355L216.719 28.0234L216.051 24.3203H218.172ZM238.527 37H234.812L234.836 34.2578H238.527C239.449 34.2578 240.227 34.0508 240.859 33.6367C241.492 33.2148 241.969 32.6016 242.289 31.7969C242.617 30.9922 242.781 30.0195 242.781 28.8789V28.0469C242.781 27.1719 242.688 26.4023 242.5 25.7383C242.32 25.0742 242.051 24.5156 241.691 24.0625C241.332 23.6094 240.891 23.2695 240.367 23.043C239.844 22.8086 239.242 22.6914 238.562 22.6914H234.742V19.9375H238.562C239.703 19.9375 240.746 20.1328 241.691 20.5234C242.645 20.9062 243.469 21.457 244.164 22.1758C244.859 22.8945 245.395 23.7539 245.77 24.7539C246.152 25.7461 246.344 26.8516 246.344 28.0703V28.8789C246.344 30.0898 246.152 31.1953 245.77 32.1953C245.395 33.1953 244.859 34.0547 244.164 34.7734C243.477 35.4844 242.652 36.0352 241.691 36.4258C240.738 36.8086 239.684 37 238.527 37ZM236.805 19.9375V37H233.289V19.9375H236.805ZM252.25 24.3203V37H248.863V24.3203H252.25ZM248.652 21.0156C248.652 20.5234 248.824 20.1172 249.168 19.7969C249.512 19.4766 249.973 19.3164 250.551 19.3164C251.121 19.3164 251.578 19.4766 251.922 19.7969C252.273 20.1172 252.449 20.5234 252.449 21.0156C252.449 21.5078 252.273 21.9141 251.922 22.2344C251.578 22.5547 251.121 22.7148 250.551 22.7148C249.973 22.7148 249.512 22.5547 249.168 22.2344C248.824 21.9141 248.652 21.5078 248.652 21.0156ZM258.344 27.0273V37H254.969V24.3203H258.133L258.344 27.0273ZM257.852 30.2148H256.938C256.938 29.2773 257.059 28.4336 257.301 27.6836C257.543 26.9258 257.883 26.2812 258.32 25.75C258.758 25.2109 259.277 24.8008 259.879 24.5195C260.488 24.2305 261.168 24.0859 261.918 24.0859C262.512 24.0859 263.055 24.1719 263.547 24.3438C264.039 24.5156 264.461 24.7891 264.812 25.1641C265.172 25.5391 265.445 26.0352 265.633 26.6523C265.828 27.2695 265.926 28.0234 265.926 28.9141V37H262.527V28.9023C262.527 28.3398 262.449 27.9023 262.293 27.5898C262.137 27.2773 261.906 27.0586 261.602 26.9336C261.305 26.8008 260.938 26.7344 260.5 26.7344C260.047 26.7344 259.652 26.8242 259.316 27.0039C258.988 27.1836 258.715 27.4336 258.496 27.7539C258.285 28.0664 258.125 28.4336 258.016 28.8555C257.906 29.2773 257.852 29.7305 257.852 30.2148ZM274.328 37.2344C273.344 37.2344 272.461 37.0781 271.68 36.7656C270.898 36.4453 270.234 36.0039 269.688 35.4414C269.148 34.8789 268.734 34.2266 268.445 33.4844C268.156 32.7344 268.012 31.9375 268.012 31.0938V30.625C268.012 29.6641 268.148 28.7852 268.422 27.9883C268.695 27.1914 269.086 26.5 269.594 25.9141C270.109 25.3281 270.734 24.8789 271.469 24.5664C272.203 24.2461 273.031 24.0859 273.953 24.0859C274.852 24.0859 275.648 24.2344 276.344 24.5312C277.039 24.8281 277.621 25.25 278.09 25.7969C278.566 26.3438 278.926 27 279.168 27.7656C279.41 28.5234 279.531 29.3672 279.531 30.2969V31.7031H269.453V29.4531H276.215V29.1953C276.215 28.7266 276.129 28.3086 275.957 27.9414C275.793 27.5664 275.543 27.2695 275.207 27.0508C274.871 26.832 274.441 26.7227 273.918 26.7227C273.473 26.7227 273.09 26.8203 272.77 27.0156C272.449 27.2109 272.188 27.4844 271.984 27.8359C271.789 28.1875 271.641 28.6016 271.539 29.0781C271.445 29.5469 271.398 30.0625 271.398 30.625V31.0938C271.398 31.6016 271.469 32.0703 271.609 32.5C271.758 32.9297 271.965 33.3008 272.23 33.6133C272.504 33.9258 272.832 34.168 273.215 34.3398C273.605 34.5117 274.047 34.5977 274.539 34.5977C275.148 34.5977 275.715 34.4805 276.238 34.2461C276.77 34.0039 277.227 33.6406 277.609 33.1562L279.25 34.9375C278.984 35.3203 278.621 35.6875 278.16 36.0391C277.707 36.3906 277.16 36.6797 276.52 36.9062C275.879 37.125 275.148 37.2344 274.328 37.2344Z" fill="#FFFCCC"/>
<path d="M46.9749 21H48V51.3158C48 52.246 47.3881 53 46.6333 53H45.9499C45.195 53 44.5831 52.246 44.5831 51.3158V42.8947H43.2164C43.2164 23.5263 46.9749 21 46.9749 21ZM35.0159 53H34.3325C33.5776 53 32.9657 52.246 32.9657 51.3158V34.4737C32.5101 34.4737 32.0546 34.4737 31.4851 33.7017C30.9156 32.9299 30.4031 31.386 30.0614 29.4913C29.7197 26.0526 30.9156 21 30.9156 21L31.7698 29.0001H32.1115L33.3074 21.0001L34.5033 29.0001H34.845L36.0409 21L37.2368 29.0001H37.5785L38.4327 21C38.4327 21 39.6287 26.0526 39.287 29.4912C38.9453 31.3859 38.4327 32.9299 37.8633 33.7017C37.2938 34.4737 36.8382 34.4737 36.3826 34.4737V51.3158C36.3826 52.246 35.7707 53 35.0159 53Z" fill="#FFFFCC"/>
<rect x="-0.00516728" y="3.18507" width="46.2261" height="46.258" transform="matrix(0.769818 0.638264 -0.771885 0.635763 42.0226 1.16342)" stroke="#FFFFCC" stroke-width="5"/>
<rect x="-0.00516728" y="3.18507" width="46.2261" height="46.258" transform="matrix(0.769818 0.638264 -0.771885 0.635763 42.0226 11.8797)" stroke="#FFFFCC" stroke-width="5"/>
</svg>
